<svg id="Layer_1" data-name="Layer 1" xmlns="http://www.w3.org/2000/svg" viewBox="0 0 221.63 184.64"><defs><style>.cls-1{fill:#fff;}.cls-2{fill:#e32827;}.cls-3{fill:#2e3078;}.cls-4{fill:#2f2e78;}.cls-5{fill:#e52625;}</style></defs><path class="cls-1" d="M170.29,88.38a59.48,59.48,0,1,1-59.48-59.47,59.47,59.47,0,0,1,59.48,59.47"/><path class="cls-2" d="M110.81,149.21a60.83,60.83,0,1,1,60.83-60.83,60.9,60.9,0,0,1-60.83,60.83m0-118.95a58.12,58.12,0,1,0,58.12,58.12,58.18,58.18,0,0,0-58.12-58.12"/><path class="cls-3" d="M110.81,153.55A65.17,65.17,0,1,1,176,88.38a65.24,65.24,0,0,1-65.17,65.17m0-128.08a62.91,62.91,0,1,0,62.91,62.91,63,63,0,0,0-62.91-62.91"/><path class="cls-4" d="M67.47,105.05a.12.12,0,0,1,.13.13v.61c0,.09,0,.14-.13.14H64.38a1.41,1.41,0,0,0-.39,0,.47.47,0,0,0-.25.14.46.46,0,0,0-.13.25,1.58,1.58,0,0,0,0,.41v.88a1.58,1.58,0,0,0,0,.41.49.49,0,0,0,.13.26.47.47,0,0,0,.25.14,2,2,0,0,0,.39,0h2a.29.29,0,0,0,.23-.09.42.42,0,0,0,.07-.29v-.5c0-.05,0-.08-.07-.08h-1.8a.12.12,0,0,1-.14-.14v-.46a.13.13,0,0,1,.14-.14h2.56c.13,0,.19.06.19.18v1.44a1.08,1.08,0,0,1-.2.73.74.74,0,0,1-.57.21H64.35a3,3,0,0,1-.8-.09A1.13,1.13,0,0,1,63,109a1.05,1.05,0,0,1-.3-.5,2.75,2.75,0,0,1-.1-.76v-1a2.75,2.75,0,0,1,.1-.76,1.1,1.1,0,0,1,.3-.5,1.22,1.22,0,0,1,.53-.28,3,3,0,0,1,.8-.09Z"/><path class="cls-4" d="M73.93,105.05a1.36,1.36,0,0,1,1,.32,1.29,1.29,0,0,1,.31.95v.35a1.42,1.42,0,0,1-.22.84,1,1,0,0,1-.7.39l1,1.31s0,.05,0,.09,0,.06-.09.06h-.8l-.11,0a.17.17,0,0,1-.06-.06l-1-1.28h-2v1.22a.13.13,0,0,1-.14.14h-.66a.12.12,0,0,1-.14-.14v-4a.16.16,0,0,1,.18-.18Zm-2.55,2.2h2.35a.62.62,0,0,0,.45-.14.56.56,0,0,0,.13-.41v-.26a.56.56,0,0,0-.13-.41.62.62,0,0,0-.45-.14H71.46c-.06,0-.08,0-.08.08Z"/><path class="cls-4" d="M81.65,105.05a3,3,0,0,1,.79.09,1.26,1.26,0,0,1,.54.28,1.1,1.1,0,0,1,.3.5,2.78,2.78,0,0,1,.09.76v1a2.78,2.78,0,0,1-.09.76,1.05,1.05,0,0,1-.3.5,1.16,1.16,0,0,1-.54.28,3,3,0,0,1-.79.09H79.74a3,3,0,0,1-.79-.09,1.13,1.13,0,0,1-.53-.28,1.05,1.05,0,0,1-.3-.5,2.41,2.41,0,0,1-.1-.76v-1a2.41,2.41,0,0,1,.1-.76,1.1,1.1,0,0,1,.3-.5,1.22,1.22,0,0,1,.53-.28,3,3,0,0,1,.79-.09ZM79,107.67a2.15,2.15,0,0,0,0,.4.58.58,0,0,0,.13.26.55.55,0,0,0,.25.13,1.54,1.54,0,0,0,.4,0h1.83a1.54,1.54,0,0,0,.4,0,.55.55,0,0,0,.25-.13.58.58,0,0,0,.13-.26,2.15,2.15,0,0,0,0-.4v-.93a2.15,2.15,0,0,0,0-.4.64.64,0,0,0-.13-.26A.55.55,0,0,0,82,106a1.54,1.54,0,0,0-.4,0H79.78a1.54,1.54,0,0,0-.4,0,.55.55,0,0,0-.25.13.64.64,0,0,0-.13.26,2.15,2.15,0,0,0,0,.4Z"/><path class="cls-4" d="M87,105.05a.12.12,0,0,1,.14.13v2.46a1.58,1.58,0,0,0,0,.41.49.49,0,0,0,.13.26.55.55,0,0,0,.25.14,2,2,0,0,0,.39,0h1.71a2.15,2.15,0,0,0,.4,0,.61.61,0,0,0,.25-.14.58.58,0,0,0,.13-.26,2.29,2.29,0,0,0,0-.41v-2.46a.12.12,0,0,1,.14-.13h.67a.12.12,0,0,1,.13.13v2.55a2.78,2.78,0,0,1-.09.76,1.05,1.05,0,0,1-.3.5,1.08,1.08,0,0,1-.53.28,3.09,3.09,0,0,1-.8.09H87.91a3.09,3.09,0,0,1-.8-.09,1.18,1.18,0,0,1-.53-.28,1.05,1.05,0,0,1-.3-.5,2.41,2.41,0,0,1-.1-.76v-2.55c0-.08,0-.13.15-.13Z"/><path class="cls-4" d="M97.76,105.05a1.37,1.37,0,0,1,1,.32,1.29,1.29,0,0,1,.31.95v.45a1.29,1.29,0,0,1-.31,1,1.33,1.33,0,0,1-1,.32H95.22v1.18a.13.13,0,0,1-.14.14h-.66c-.1,0-.15,0-.15-.14v-4c0-.12.06-.18.19-.18Zm-2.54,2.18h2.35a.62.62,0,0,0,.45-.14.59.59,0,0,0,.13-.41v-.23A.59.59,0,0,0,98,106a.58.58,0,0,0-.45-.14H95.3c-.06,0-.08,0-.08.07Z"/><path class="cls-4" d="M108.1,105.05a.12.12,0,0,1,.14.13v.59a.13.13,0,0,1-.14.14H105a.33.33,0,0,0-.26.09.44.44,0,0,0-.07.25v.21c0,.23.11.34.32.34h2.31a1.1,1.1,0,0,1,.81.28,1.06,1.06,0,0,1,.27.78v.5a1,1,0,0,1-.27.72,1.07,1.07,0,0,1-.82.28H103.9c-.1,0-.15,0-.15-.14v-.58c0-.09,0-.14.15-.14h3.23a.3.3,0,0,0,.25-.09.37.37,0,0,0,.08-.25v-.25c0-.23-.11-.35-.33-.35h-2.3a1.1,1.1,0,0,1-.81-.27,1.08,1.08,0,0,1-.27-.79v-.45a1,1,0,0,1,.26-.72,1.1,1.1,0,0,1,.83-.28Z"/><path class="cls-4" d="M114.74,105.05a3,3,0,0,1,.79.09,1.26,1.26,0,0,1,.54.28,1.1,1.1,0,0,1,.3.5,2.78,2.78,0,0,1,.09.76v1a2.78,2.78,0,0,1-.09.76,1.05,1.05,0,0,1-.3.5,1.16,1.16,0,0,1-.54.28,3,3,0,0,1-.79.09h-1.9a3,3,0,0,1-.8-.09,1.13,1.13,0,0,1-.53-.28,1.05,1.05,0,0,1-.3-.5,2.41,2.41,0,0,1-.1-.76v-1a2.41,2.41,0,0,1,.1-.76,1.1,1.1,0,0,1,.3-.5,1.22,1.22,0,0,1,.53-.28,3,3,0,0,1,.8-.09Zm-2.69,2.62a2.15,2.15,0,0,0,0,.4.5.5,0,0,0,.14.26.46.46,0,0,0,.25.13,1.41,1.41,0,0,0,.39,0h1.83a1.54,1.54,0,0,0,.4,0,.55.55,0,0,0,.25-.13.58.58,0,0,0,.13-.26,1.54,1.54,0,0,0,0-.4v-.93a1.54,1.54,0,0,0,0-.4.64.64,0,0,0-.13-.26.55.55,0,0,0-.25-.13,1.54,1.54,0,0,0-.4,0h-1.83a1.41,1.41,0,0,0-.39,0,.46.46,0,0,0-.25.13.55.55,0,0,0-.14.26,2.15,2.15,0,0,0,0,.4Z"/><path class="cls-4" d="M120.08,105.05a.12.12,0,0,1,.14.13v2.46a1.58,1.58,0,0,0,0,.41.49.49,0,0,0,.13.26.55.55,0,0,0,.25.14,2.06,2.06,0,0,0,.4,0h2.49c.09,0,.13,0,.13.13v.6c0,.1,0,.14-.13.14H121a3.09,3.09,0,0,1-.8-.09,1.18,1.18,0,0,1-.53-.28,1.05,1.05,0,0,1-.3-.5,2.78,2.78,0,0,1-.09-.76v-2.55c0-.08,0-.13.14-.13Z"/><path class="cls-4" d="M127.08,105.05a.12.12,0,0,1,.13.13v2.46a1.58,1.58,0,0,0,0,.41.58.58,0,0,0,.13.26.68.68,0,0,0,.25.14,2.15,2.15,0,0,0,.4,0h1.7a2.06,2.06,0,0,0,.4,0,.55.55,0,0,0,.25-.14.49.49,0,0,0,.13-.26,1.58,1.58,0,0,0,0-.41v-2.46a.12.12,0,0,1,.13-.13h.67a.12.12,0,0,1,.14.13v2.55a2.78,2.78,0,0,1-.09.76,1.05,1.05,0,0,1-.3.5,1.16,1.16,0,0,1-.54.28,3,3,0,0,1-.8.09H128a3,3,0,0,1-.79-.09,1.08,1.08,0,0,1-.53-.28,1.15,1.15,0,0,1-.31-.5,2.78,2.78,0,0,1-.09-.76v-2.55a.12.12,0,0,1,.14-.13Z"/><path class="cls-4" d="M139,105.05c.1,0,.14,0,.14.13v.61a.12.12,0,0,1-.14.14h-1.93v3.29c0,.1,0,.14-.13.14h-.68c-.09,0-.13,0-.13-.14v-3.29h-1.94a.13.13,0,0,1-.14-.14v-.61a.12.12,0,0,1,.14-.13Z"/><rect class="cls-4" x="141.8" y="105.05" width="0.94" height="4.31" rx="0.13"/><path class="cls-4" d="M149.2,105.05a3,3,0,0,1,.79.09,1.26,1.26,0,0,1,.54.28,1.2,1.2,0,0,1,.3.5,2.78,2.78,0,0,1,.09.76v1a2.78,2.78,0,0,1-.09.76,1.14,1.14,0,0,1-.3.5,1.16,1.16,0,0,1-.54.28,3,3,0,0,1-.79.09h-1.91a3,3,0,0,1-.79-.09A1.08,1.08,0,0,1,146,109a1.15,1.15,0,0,1-.31-.5,2.78,2.78,0,0,1-.09-.76v-1a2.78,2.78,0,0,1,.09-.76,1.21,1.21,0,0,1,.31-.5,1.17,1.17,0,0,1,.53-.28,3,3,0,0,1,.79-.09Zm-2.69,2.62a1.54,1.54,0,0,0,0,.4.58.58,0,0,0,.13.26.5.5,0,0,0,.25.13,1.54,1.54,0,0,0,.4,0h1.83a1.54,1.54,0,0,0,.4,0,.47.47,0,0,0,.24-.13.5.5,0,0,0,.14-.26,2.15,2.15,0,0,0,0-.4v-.93a2.15,2.15,0,0,0,0-.4.55.55,0,0,0-.14-.26.47.47,0,0,0-.24-.13,1.54,1.54,0,0,0-.4,0h-1.83a1.54,1.54,0,0,0-.4,0,.5.5,0,0,0-.25.13.64.64,0,0,0-.13.26,1.54,1.54,0,0,0,0,.4Z"/><path class="cls-4" d="M154.84,105.05h.25a.49.49,0,0,1,.17.06.36.36,0,0,1,.14.11,1,1,0,0,1,.15.18l2.3,3s0,0,.08,0h0s.05,0,.05-.06v-3.22a.12.12,0,0,1,.14-.13h.64a.12.12,0,0,1,.14.13v3.54a.72.72,0,0,1-.14.51.57.57,0,0,1-.42.13h-.76a.69.69,0,0,1-.17,0,.72.72,0,0,1-.15-.11l-.16-.19-2.3-3a.09.09,0,0,0-.08,0h-.05s-.05,0-.05.06v3.21a.12.12,0,0,1-.14.14h-.64c-.1,0-.15,0-.15-.14v-3.53a.72.72,0,0,1,.14-.51.57.57,0,0,1,.42-.13Z"/><path class="cls-4" d="M62.27,83.55V100c0,.75.38,1.12,1.16,1.12h5.46A1.12,1.12,0,0,0,70,100V83.55Z"/><path class="cls-4" d="M113.72,68.36c-1.69-1.76-4.47-2.63-8.34-2.63H78.24a1.52,1.52,0,0,0-1.52,1.51v4a1.5,1.5,0,0,0,1.49,1.5h6.63a.77.77,0,0,1,.27,0h18.7a4.91,4.91,0,0,1,3.64,1.11,4.75,4.75,0,0,1,1.06,3.39v1.92a4.74,4.74,0,0,1-1.06,3.39,4.91,4.91,0,0,1-3.64,1.11H84.45v0H76.72V100c0,.75.39,1.12,1.16,1.12h5.46A1.11,1.11,0,0,0,84.45,100v-9.7h20.93q5.81,0,8.34-2.63t2.52-7.78V76.14q0-5.16-2.52-7.78"/><path class="cls-4" d="M156.37,65.73a1.11,1.11,0,0,1,1.11,1.11v4.8a1.1,1.1,0,0,1-1.11,1.11H131.05a2.48,2.48,0,0,0-2.07.76,3.27,3.27,0,0,0-.61,2.07V77.3c0,1.89.88,2.83,2.63,2.83H150c2.94,0,5.14.75,6.63,2.25a8.79,8.79,0,0,1,2.22,6.44v4.05a8.25,8.25,0,0,1-2.17,6q-2.17,2.28-6.78,2.28h-28c-.77,0-1.16-.37-1.16-1.12v-4.8c0-.74.39-1.11,1.16-1.11h26.54a2.48,2.48,0,0,0,2.07-.76,3.23,3.23,0,0,0,.61-2.07V89.18c0-1.89-.88-2.83-2.63-2.83H129.49c-2.94,0-5.14-.75-6.62-2.25a8.76,8.76,0,0,1-2.23-6.45V74a8.29,8.29,0,0,1,2.17-6c1.45-1.52,3.71-2.27,6.78-2.27Z"/><path class="cls-5" d="M92.56,96.62a1.13,1.13,0,1,0-1.12-1.13,1.13,1.13,0,0,0,1.12,1.13"/><path class="cls-5" d="M110.79,94.9h-.05a.38.38,0,0,0-.19.06l-3.3,2.27a.14.14,0,0,0-.06.12v.06s0,.06.07.06h3.6V95c0-.06,0-.09-.07-.09"/><path class="cls-5" d="M114.67,89.4c-1.94,2-5.06,3-9.29,3h-18v8.68h29V86.88a9.3,9.3,0,0,1-1.7,2.52M91.21,94.29a1.73,1.73,0,0,1,1.85-.53,1.77,1.77,0,0,1,1.31,1.43,2,2,0,0,1-.08,1,4.38,4.38,0,0,1-.56,1.2,9.31,9.31,0,0,1-1.13,1.44l0,0-.22-.24A8.28,8.28,0,0,1,91.17,97a3.48,3.48,0,0,1-.39-1,1.81,1.81,0,0,1,.43-1.67m3.53,4.94a.77.77,0,0,1-.23.21,2.29,2.29,0,0,1-.71.28,5.48,5.48,0,0,1-1.51.13,5.32,5.32,0,0,1-1.12-.17,2.24,2.24,0,0,1-.59-.27,1.29,1.29,0,0,1-.17-.16.35.35,0,0,1,0-.44.82.82,0,0,1,.25-.21,2.1,2.1,0,0,1,.72-.27,2.8,2.8,0,0,1,.28-.06,0,0,0,0,1,0,0,2.09,2.09,0,0,0,.14.17l-.31.07a2,2,0,0,0-.41.13.71.71,0,0,0-.14.1A.14.14,0,0,0,91,99a.81.81,0,0,0,.18.1,2.44,2.44,0,0,0,.59.15,6.1,6.1,0,0,0,1.35,0,3.14,3.14,0,0,0,.8-.15.66.66,0,0,0,.19-.09c.15-.09.15-.2,0-.31a1,1,0,0,0-.34-.14c-.14,0-.28-.06-.43-.09h0a.53.53,0,0,0,.1-.12c0-.08.1-.08.18-.07a3.31,3.31,0,0,1,.77.25,1.17,1.17,0,0,1,.3.19l.09.1a.35.35,0,0,1,0,.41m9.29-.94a2.33,2.33,0,0,1-.08.62,1.08,1.08,0,0,1-.26.47,1.19,1.19,0,0,1-.47.3,2.18,2.18,0,0,1-.72.11H97.88a.17.17,0,0,1-.19-.19v-.77a.17.17,0,0,1,.19-.19h4.23a.78.78,0,0,0,.49-.13.51.51,0,0,0,.15-.41v-.31a.54.54,0,0,0-.16-.42.92.92,0,0,0-.59-.14H97.93c-.13,0-.2-.06-.2-.19v-.61a.18.18,0,0,1,.2-.19H102a.93.93,0,0,0,.59-.13.5.5,0,0,0,.15-.39v-.3a.49.49,0,0,0-.15-.4.78.78,0,0,0-.49-.12H97.88a.17.17,0,0,1-.19-.19v-.77a.17.17,0,0,1,.19-.19h4.47a1.84,1.84,0,0,1,1.26.35,1.41,1.41,0,0,1,.37,1.07v.42a1.27,1.27,0,0,1-.5,1.09,1.25,1.25,0,0,1,.55,1.11Zm9,.07a.17.17,0,0,1-.19.19h-.71v1a.17.17,0,0,1-.19.19h-.88c-.14,0-.2-.07-.2-.19v-1h-4.54a.53.53,0,0,1-.41-.15.51.51,0,0,1-.14-.37v-.66a1,1,0,0,1,.07-.4.76.76,0,0,1,.27-.3L110,94a1.35,1.35,0,0,1,.4-.2,1.45,1.45,0,0,1,.47-.06h.51a.77.77,0,0,1,.56.18,1,1,0,0,1,.18.7v2.84h.71a.17.17,0,0,1,.19.19Z"/><path class="cls-5" d="M70,72.56V66.84a1,1,0,0,0-1.11-1.11H63.43q-1.17,0-1.17,1.11v5.72Z"/></svg>