<svg id="Layer_1" data-name="Layer 1" xmlns="http://www.w3.org/2000/svg" viewBox="0 0 221.63 184.64"><defs><style>.cls-1{fill:#2f2e78;}.cls-2{fill:#e32827;}</style></defs><path class="cls-1" d="M28.1,121.92a.24.24,0,0,1,.28.28v8.47a.24.24,0,0,1-.28.28H26.71c-.2,0-.3-.09-.3-.28V122.2c0-.19.1-.28.3-.28Z"/><path class="cls-1" d="M36.72,121.92a3.49,3.49,0,0,1,.51,0,.89.89,0,0,1,.37.11,1,1,0,0,1,.29.23,3.68,3.68,0,0,1,.33.39L43,129a.2.2,0,0,0,.17.09h.12c.07,0,.1,0,.1-.13V122.2c0-.19.1-.28.29-.28H45a.24.24,0,0,1,.28.28v7.41a1.48,1.48,0,0,1-.28,1.06,1.19,1.19,0,0,1-.88.28H43.05l-.49,0a1.27,1.27,0,0,1-.36-.11,1.15,1.15,0,0,1-.3-.22,4.34,4.34,0,0,1-.34-.41l-4.81-6.3a.24.24,0,0,0-.17-.09h-.12c-.07,0-.1,0-.1.13v6.74c0,.19-.1.28-.29.28H34.72c-.2,0-.3-.09-.3-.28v-7.41a1.48,1.48,0,0,1,.29-1.06,1.18,1.18,0,0,1,.87-.28Z"/><path class="cls-1" d="M52.54,121.92a.3.3,0,0,1,.18,0,.29.29,0,0,1,.11.13L56.61,129a.16.16,0,0,0,.16.09h.06A.15.15,0,0,0,57,129l3.73-6.94a.3.3,0,0,1,.3-.17h1.69a.2.2,0,0,1,.19.08.27.27,0,0,1,0,.22L58.61,130a2,2,0,0,1-.63.79,1.34,1.34,0,0,1-.72.19h-.75a1.59,1.59,0,0,1-.83-.19A2,2,0,0,1,55,130l-4.28-7.75a.3.3,0,0,1,0-.22s.09-.08.2-.08Z"/><path class="cls-1" d="M77.45,121.92c.19,0,.29.09.29.28v1.23c0,.19-.1.28-.29.28H71.81a3.18,3.18,0,0,0-.83.09,1.08,1.08,0,0,0-.53.28,1,1,0,0,0-.28.54,4,4,0,0,0-.08.85v.13h7.29c.19,0,.29.09.29.28v1c0,.19-.1.28-.29.28H70.09v.22a4,4,0,0,0,.08.85,1,1,0,0,0,.28.54,1.08,1.08,0,0,0,.53.28,3.18,3.18,0,0,0,.83.09h5.64c.19,0,.29.09.29.28v1.23c0,.19-.1.28-.29.28H71.77a6.58,6.58,0,0,1-1.66-.18,2.55,2.55,0,0,1-1.12-.59,2.32,2.32,0,0,1-.63-1.05,5.28,5.28,0,0,1-.2-1.58v-2.22a5.19,5.19,0,0,1,.2-1.58,2.32,2.32,0,0,1,.63-1,2.55,2.55,0,0,1,1.12-.59,6.11,6.11,0,0,1,1.66-.19Z"/><path class="cls-1" d="M92.52,121.92a.25.25,0,0,1,.28.28v1.23a.25.25,0,0,1-.28.28H86.05a.65.65,0,0,0-.53.2.84.84,0,0,0-.15.53v.43c0,.49.22.73.67.73h4.84a2.29,2.29,0,0,1,1.69.57,2.23,2.23,0,0,1,.56,1.65v1a2.1,2.1,0,0,1-.55,1.52,2.29,2.29,0,0,1-1.73.58H83.7c-.19,0-.29-.09-.29-.28v-1.23c0-.19.1-.28.29-.28h6.78A.65.65,0,0,0,91,129a.81.81,0,0,0,.15-.52v-.53c0-.49-.22-.73-.67-.73H85.65a2.29,2.29,0,0,1-1.69-.57,2.23,2.23,0,0,1-.57-1.64v-1A2.13,2.13,0,0,1,84,122.5a2.29,2.29,0,0,1,1.73-.58Z"/><path class="cls-1" d="M108.75,121.92c.19,0,.29.09.29.28v1.27a.26.26,0,0,1-.29.3h-4.06v6.9a.24.24,0,0,1-.28.28H103a.25.25,0,0,1-.28-.28v-6.9h-4a.27.27,0,0,1-.3-.3V122.2c0-.19.1-.28.3-.28Z"/><path class="cls-1" d="M128.88,121.92c.19,0,.29.09.29.28v1.27a.26.26,0,0,1-.29.3h-6.46a3.23,3.23,0,0,0-.83.08,1,1,0,0,0-.52.28,1.11,1.11,0,0,0-.28.54,3.35,3.35,0,0,0-.09.85v1.86a3.49,3.49,0,0,0,.09.86,1.16,1.16,0,0,0,.28.54,1,1,0,0,0,.52.28,3.18,3.18,0,0,0,.83.09h4.26a.63.63,0,0,0,.49-.18,1,1,0,0,0,.15-.61v-1.05c0-.11,0-.16-.15-.16h-3.78a.26.26,0,0,1-.29-.3v-1a.26.26,0,0,1,.29-.3h5.38a.34.34,0,0,1,.38.39v3a2.23,2.23,0,0,1-.41,1.53,1.55,1.55,0,0,1-1.19.44h-5.21a6.58,6.58,0,0,1-1.66-.18,2.55,2.55,0,0,1-1.12-.59,2.32,2.32,0,0,1-.63-1.05,5.62,5.62,0,0,1-.2-1.58v-2.22a5.52,5.52,0,0,1,.2-1.58,2.32,2.32,0,0,1,.63-1,2.55,2.55,0,0,1,1.12-.59,6.11,6.11,0,0,1,1.66-.19Z"/><path class="cls-1" d="M142.42,121.92a2.85,2.85,0,0,1,2.13.67,2.81,2.81,0,0,1,.64,2v.73a3,3,0,0,1-.45,1.76,2.14,2.14,0,0,1-1.47.82l2.2,2.74a.18.18,0,0,1,0,.19c0,.09-.08.13-.2.13h-1.67a.43.43,0,0,1-.23,0,.4.4,0,0,1-.13-.13l-2-2.68h-4.16v2.57c0,.19-.1.28-.29.28H135.4c-.2,0-.3-.09-.3-.28v-8.36a.34.34,0,0,1,.39-.39Zm-5.34,4.61H142a1.25,1.25,0,0,0,.93-.29,1.22,1.22,0,0,0,.27-.86v-.54A1.23,1.23,0,0,0,143,124a1.25,1.25,0,0,0-.93-.28h-4.78c-.11,0-.16,0-.16.15Z"/><path class="cls-1" d="M158.6,121.92a6.24,6.24,0,0,1,1.67.19,2.55,2.55,0,0,1,1.12.59,2.3,2.3,0,0,1,.62,1,5.52,5.52,0,0,1,.2,1.58v2.22a5.62,5.62,0,0,1-.2,1.58,2.3,2.3,0,0,1-.62,1.05,2.55,2.55,0,0,1-1.12.59,6.72,6.72,0,0,1-1.67.18h-4a6.66,6.66,0,0,1-1.67-.18,2.57,2.57,0,0,1-1.11-.59,2.32,2.32,0,0,1-.63-1.05,5.28,5.28,0,0,1-.2-1.58v-2.22a5.19,5.19,0,0,1,.2-1.58,2.32,2.32,0,0,1,.63-1,2.57,2.57,0,0,1,1.11-.59,6.19,6.19,0,0,1,1.67-.19ZM153,127.4a4,4,0,0,0,.08.85,1.16,1.16,0,0,0,.28.54,1,1,0,0,0,.52.28,3.26,3.26,0,0,0,.84.09h3.83a3.23,3.23,0,0,0,.83-.09,1,1,0,0,0,.52-.28,1.16,1.16,0,0,0,.28-.54,3.45,3.45,0,0,0,.08-.85v-1.93a3.45,3.45,0,0,0-.08-.85,1.21,1.21,0,0,0-.28-.54,1,1,0,0,0-.52-.28,3.23,3.23,0,0,0-.83-.09h-3.83a3.26,3.26,0,0,0-.84.09,1,1,0,0,0-.52.28,1.21,1.21,0,0,0-.28.54,4,4,0,0,0-.08.85Z"/><path class="cls-1" d="M169.79,121.92c.19,0,.29.09.29.28v5.15a4.05,4.05,0,0,0,.08.86,1.16,1.16,0,0,0,.28.54,1.06,1.06,0,0,0,.52.29,3.82,3.82,0,0,0,.83.08h3.58a3.82,3.82,0,0,0,.83-.08,1,1,0,0,0,.79-.83,4.05,4.05,0,0,0,.08-.86V122.2a.24.24,0,0,1,.28-.28h1.41a.24.24,0,0,1,.28.28v5.35a5.65,5.65,0,0,1-.19,1.58,2.32,2.32,0,0,1-.63,1.05,2.5,2.5,0,0,1-1.12.59,6.72,6.72,0,0,1-1.67.18h-3.71a6.66,6.66,0,0,1-1.67-.18,2.46,2.46,0,0,1-1.11-.59,2.42,2.42,0,0,1-.64-1.05,5.62,5.62,0,0,1-.2-1.58V122.2c0-.19.1-.28.3-.28Z"/><path class="cls-1" d="M192.37,121.92a2.85,2.85,0,0,1,2.13.67,2.77,2.77,0,0,1,.64,2v1a2.77,2.77,0,0,1-.64,2,2.85,2.85,0,0,1-2.13.67H187v2.48c0,.19-.1.28-.29.28h-1.39c-.2,0-.3-.09-.3-.28v-8.36a.34.34,0,0,1,.39-.39ZM187,126.49H192a1.25,1.25,0,0,0,.93-.29,1.2,1.2,0,0,0,.27-.86v-.49a1.23,1.23,0,0,0-.27-.87,1.25,1.25,0,0,0-.93-.28H187.2c-.12,0-.17,0-.17.15Z"/><path class="cls-1" d="M25.56,82.64v29c0,1.31.68,2,2.05,2h9.64a2,2,0,0,0,2-2v-29Z"/><path class="cls-1" d="M116.44,55.8q-4.47-4.65-14.73-4.65H53.77a2.68,2.68,0,0,0-2.68,2.68V60.9a2.64,2.64,0,0,0,2.64,2.63H65.44a2.07,2.07,0,0,1,.47-.06h33c3,0,5.18.66,6.43,2s1.87,3.3,1.87,6v3.39q0,4-1.87,6c-1.25,1.31-3.4,2-6.43,2H64.75v0H51.09v29c0,1.31.68,2,2,2h9.65a2,2,0,0,0,2-2V94.54h37q10.26,0,14.73-4.64t4.46-13.75V69.54q0-9.11-4.46-13.74"/><path class="cls-1" d="M191.78,51.15a2,2,0,0,1,2,2V61.6a2,2,0,0,1-2,2H147.06a4.43,4.43,0,0,0-3.66,1.34,5.66,5.66,0,0,0-1.07,3.66v3c0,3.33,1.54,5,4.64,5h33.47q7.77,0,11.7,4T196.07,92v7.14a14.62,14.62,0,0,1-3.84,10.54q-3.84,4-12,4H130.81c-1.37,0-2.05-.65-2.05-2V103.2c0-1.31.68-2,2.05-2h46.87a4.43,4.43,0,0,0,3.66-1.34,5.71,5.71,0,0,0,1.07-3.65V92.58c0-3.34-1.55-5-4.64-5H144.29q-7.77,0-11.7-4t-3.92-11.38V65.7a14.65,14.65,0,0,1,3.83-10.53q3.84-4,12-4Z"/><path class="cls-2" d="M79.08,105.72a2,2,0,1,0-2-2,2,2,0,0,0,2,2"/><path class="cls-2" d="M111.27,102.67h-.09a.63.63,0,0,0-.34.13l-5.83,4a.26.26,0,0,0-.09.21v.1c0,.07,0,.1.12.1h6.35v-4.37c0-.11,0-.17-.12-.17"/><path class="cls-2" d="M118.11,93c-3.41,3.55-8.93,5.35-16.4,5.35H69.89v15.32h51.23V88.51a16.35,16.35,0,0,1-3,4.46m-41.43,8.64a3.08,3.08,0,0,1,3.28-.94,3.11,3.11,0,0,1,2.3,2.52,3.64,3.64,0,0,1-.13,1.79,8.23,8.23,0,0,1-1,2.12,15.32,15.32,0,0,1-2,2.54l0,.07c-.15-.16-.28-.29-.4-.43a14.49,14.49,0,0,1-2.08-2.9,6.64,6.64,0,0,1-.69-1.83,3.19,3.19,0,0,1,.76-2.94m6.23,8.72a1.29,1.29,0,0,1-.4.37,4.34,4.34,0,0,1-1.25.49,9.63,9.63,0,0,1-2.68.23,8.69,8.69,0,0,1-2-.3,3.44,3.44,0,0,1-1.05-.48,1.58,1.58,0,0,1-.3-.28.59.59,0,0,1,0-.78,1.51,1.51,0,0,1,.43-.37,4.22,4.22,0,0,1,1.28-.48l.49-.1a.08.08,0,0,1,.09,0l.25.32-.54.11a2.72,2.72,0,0,0-.73.24.85.85,0,0,0-.25.17.23.23,0,0,0,0,.38,1.23,1.23,0,0,0,.31.19,3.69,3.69,0,0,0,1,.25,10.05,10.05,0,0,0,2.39.06,5.73,5.73,0,0,0,1.42-.26,2,2,0,0,0,.33-.16c.27-.17.27-.36,0-.54a1.77,1.77,0,0,0-.6-.26l-.75-.16h-.06a1.63,1.63,0,0,0,.17-.22c.08-.14.18-.14.32-.11a5.59,5.59,0,0,1,1.37.43,1.8,1.8,0,0,1,.52.34.93.93,0,0,1,.16.18.59.59,0,0,1,0,.72m16.41-1.66a4.1,4.1,0,0,1-.13,1.1,2,2,0,0,1-.46.83,2.09,2.09,0,0,1-.84.53,3.82,3.82,0,0,1-1.26.18H88.47a.3.3,0,0,1-.34-.34v-1.35a.3.3,0,0,1,.34-.34h7.47a1.25,1.25,0,0,0,.86-.23.86.86,0,0,0,.27-.71v-.56a.92.92,0,0,0-.28-.73,1.66,1.66,0,0,0-1-.25H88.56c-.24,0-.35-.11-.35-.33v-1.09c0-.22.11-.33.35-.33h7.19a1.62,1.62,0,0,0,1-.24.83.83,0,0,0,.27-.67v-.54a.87.87,0,0,0-.26-.71,1.43,1.43,0,0,0-.88-.22H88.47c-.23,0-.34-.11-.34-.33V101c0-.22.11-.33.34-.33h7.89a3.27,3.27,0,0,1,2.23.62,2.5,2.5,0,0,1,.66,1.89v.73a2.28,2.28,0,0,1-.9,1.94,2.15,2.15,0,0,1,1,2Zm15.91.13c0,.22-.11.33-.34.33h-1.25V111c0,.23-.11.34-.33.34h-1.57a.31.31,0,0,1-.35-.34v-1.84h-8a.92.92,0,0,1-.73-.26.9.9,0,0,1-.25-.67v-1.15a1.61,1.61,0,0,1,.13-.71,1.22,1.22,0,0,1,.47-.53l6.9-4.71a2.49,2.49,0,0,1,.69-.35,2.68,2.68,0,0,1,.83-.1h.9a1.39,1.39,0,0,1,1,.31,1.78,1.78,0,0,1,.32,1.24v5h1.25a.31.31,0,0,1,.34.35Z"/><path class="cls-2" d="M39.22,63.22V53.12a1.74,1.74,0,0,0-2-2H27.61c-1.37,0-2.05.66-2.05,2v10.1Z"/></svg>