<svg id="Layer_1" data-name="Layer 1" xmlns="http://www.w3.org/2000/svg" viewBox="0 0 221.63 184.64"><defs><style>.cls-1{fill:#fff;}.cls-2{fill:#e52625;}</style></defs><path class="cls-1" d="M38.9,122a.21.21,0,0,1,.24.24v1.07c0,.17-.08.25-.24.25H33.46a2.83,2.83,0,0,0-.71.07,1,1,0,0,0-.44.24,1.06,1.06,0,0,0-.23.45A2.92,2.92,0,0,0,32,125v1.56a3.06,3.06,0,0,0,.07.73,1.06,1.06,0,0,0,.23.45.83.83,0,0,0,.44.24,2.83,2.83,0,0,0,.71.07h3.59a.56.56,0,0,0,.41-.14.78.78,0,0,0,.13-.52v-.88c0-.09,0-.14-.13-.14H34.27a.22.22,0,0,1-.24-.25v-.82a.22.22,0,0,1,.24-.25h4.54a.29.29,0,0,1,.32.33v2.53a1.84,1.84,0,0,1-.35,1.29,1.29,1.29,0,0,1-1,.38H33.39a5.14,5.14,0,0,1-1.4-.16,2,2,0,0,1-1.48-1.38,4.73,4.73,0,0,1-.16-1.34v-1.87a4.58,4.58,0,0,1,.16-1.32,2.05,2.05,0,0,1,.54-.89,2.17,2.17,0,0,1,.94-.5,5.56,5.56,0,0,1,1.4-.16Z"/><path class="cls-1" d="M50.31,122a2.43,2.43,0,0,1,1.8.57,2.33,2.33,0,0,1,.54,1.67v.62a2.55,2.55,0,0,1-.38,1.48A1.85,1.85,0,0,1,51,127l1.86,2.3a.18.18,0,0,1,0,.17c0,.07-.07.11-.17.11H51.34a.31.31,0,0,1-.3-.15l-1.72-2.26H45.81v2.17a.21.21,0,0,1-.24.24H44.4c-.17,0-.26-.08-.26-.24v-7a.29.29,0,0,1,.33-.33Zm-4.5,3.89H50a1.08,1.08,0,0,0,.79-.24,1,1,0,0,0,.23-.73v-.46a1,1,0,0,0-.23-.73,1.08,1.08,0,0,0-.79-.24H46a.12.12,0,0,0-.14.13Z"/><path class="cls-1" d="M64,122a5.7,5.7,0,0,1,1.41.16,2.23,2.23,0,0,1,.94.5,2,2,0,0,1,.53.89,4.58,4.58,0,0,1,.16,1.32v1.88a4.7,4.7,0,0,1-.16,1.33,2,2,0,0,1-.53.89,2.11,2.11,0,0,1-.94.49,5.26,5.26,0,0,1-1.41.16H60.59a5.26,5.26,0,0,1-1.41-.16,2.17,2.17,0,0,1-.94-.49,2,2,0,0,1-.53-.89,4.67,4.67,0,0,1-.17-1.33v-1.88a4.55,4.55,0,0,1,.17-1.32,2,2,0,0,1,.53-.89,2.29,2.29,0,0,1,.94-.5,5.7,5.7,0,0,1,1.41-.16Zm-4.74,4.63a2.88,2.88,0,0,0,.07.71.88.88,0,0,0,.23.45A.83.83,0,0,0,60,128a2.8,2.8,0,0,0,.7.07h3.23a2.75,2.75,0,0,0,.7-.07.79.79,0,0,0,.44-.24,1,1,0,0,0,.24-.45,3.47,3.47,0,0,0,.07-.71V125a3.47,3.47,0,0,0-.07-.71,1,1,0,0,0-.24-.45.79.79,0,0,0-.44-.24,2.75,2.75,0,0,0-.7-.07H60.65a2.8,2.8,0,0,0-.7.07.83.83,0,0,0-.44.24.88.88,0,0,0-.23.45,2.88,2.88,0,0,0-.07.71Z"/><path class="cls-1" d="M73.39,122a.21.21,0,0,1,.24.24v4.34a2.92,2.92,0,0,0,.07.72.87.87,0,0,0,.23.46,1,1,0,0,0,.44.24,2.8,2.8,0,0,0,.7.07h3a2.83,2.83,0,0,0,.71-.07,1,1,0,0,0,.44-.24.94.94,0,0,0,.22-.46,2.92,2.92,0,0,0,.07-.72v-4.34a.21.21,0,0,1,.24-.24h1.18a.21.21,0,0,1,.24.24v4.5a4.73,4.73,0,0,1-.16,1.34,2,2,0,0,1-.53.89,2.11,2.11,0,0,1-.94.49,5.26,5.26,0,0,1-1.41.16H75a5.26,5.26,0,0,1-1.41-.16,2.17,2.17,0,0,1-.94-.49,2,2,0,0,1-.53-.89,4.7,4.7,0,0,1-.17-1.34v-4.5a.22.22,0,0,1,.25-.24Z"/><path class="cls-1" d="M92.42,122a2.39,2.39,0,0,1,1.79.57,2.33,2.33,0,0,1,.54,1.67V125a2.31,2.31,0,0,1-.54,1.67,2.39,2.39,0,0,1-1.79.57H87.91v2.09a.21.21,0,0,1-.24.24H86.5c-.17,0-.25-.08-.25-.24v-7a.29.29,0,0,1,.33-.33Zm-4.51,3.85h4.17a1,1,0,0,0,.78-.24,1,1,0,0,0,.23-.72v-.42a.85.85,0,0,0-1-1h-4a.13.13,0,0,0-.14.14Z"/><path class="cls-1" d="M110.67,122a.21.21,0,0,1,.24.24v1a.21.21,0,0,1-.24.24h-5.45a.53.53,0,0,0-.44.16.68.68,0,0,0-.13.44v.37c0,.41.19.61.56.61h4.08a1.91,1.91,0,0,1,1.43.49,1.86,1.86,0,0,1,.47,1.38v.87a1.8,1.8,0,0,1-.46,1.29,2,2,0,0,1-1.46.49h-6a.22.22,0,0,1-.25-.24v-1a.22.22,0,0,1,.25-.24H109a.55.55,0,0,0,.45-.16.68.68,0,0,0,.13-.44V127c0-.41-.19-.61-.56-.61h-4.08a2,2,0,0,1-1.43-.48,1.91,1.91,0,0,1-.48-1.39v-.79a1.81,1.81,0,0,1,.47-1.29,2,2,0,0,1,1.46-.49Z"/><path class="cls-1" d="M122.39,122a5.59,5.59,0,0,1,1.41.16,2.21,2.21,0,0,1,1,.5,2,2,0,0,1,.53.89,4.58,4.58,0,0,1,.16,1.32v1.88a4.7,4.7,0,0,1-.16,1.33,2,2,0,0,1-.53.89,2.1,2.1,0,0,1-1,.49,5.16,5.16,0,0,1-1.41.16H119a5.21,5.21,0,0,1-1.41-.16,2.11,2.11,0,0,1-.94-.49,2,2,0,0,1-.53-.89,4.67,4.67,0,0,1-.17-1.33v-1.88a4.55,4.55,0,0,1,.17-1.32,2,2,0,0,1,.53-.89,2.23,2.23,0,0,1,.94-.5A5.65,5.65,0,0,1,119,122Zm-4.74,4.63a3.47,3.47,0,0,0,.07.71,1,1,0,0,0,.24.45.79.79,0,0,0,.44.24,2.75,2.75,0,0,0,.7.07h3.23a2.75,2.75,0,0,0,.7-.07.79.79,0,0,0,.44-.24,1,1,0,0,0,.24-.45,3.47,3.47,0,0,0,.07-.71V125a3.47,3.47,0,0,0-.07-.71,1,1,0,0,0-.24-.45.79.79,0,0,0-.44-.24,2.75,2.75,0,0,0-.7-.07H119.1a2.75,2.75,0,0,0-.7.07.79.79,0,0,0-.44.24,1,1,0,0,0-.24.45,3.47,3.47,0,0,0-.07.71Z"/><path class="cls-1" d="M131.83,122a.21.21,0,0,1,.24.24v4.34a3.5,3.5,0,0,0,.07.72,1,1,0,0,0,.24.46.93.93,0,0,0,.44.24,2.75,2.75,0,0,0,.7.07h4.4a.21.21,0,0,1,.24.24v1.07a.21.21,0,0,1-.24.24h-4.47a5.14,5.14,0,0,1-1.4-.16,2.11,2.11,0,0,1-.94-.49,2,2,0,0,1-.53-.89,4.37,4.37,0,0,1-.17-1.34v-4.5c0-.16.08-.24.25-.24Z"/><path class="cls-1" d="M144.19,122a.21.21,0,0,1,.24.24v4.34a2.92,2.92,0,0,0,.07.72.87.87,0,0,0,.23.46,1,1,0,0,0,.44.24,2.8,2.8,0,0,0,.7.07h3a2.83,2.83,0,0,0,.71-.07,1,1,0,0,0,.44-.24.94.94,0,0,0,.22-.46,2.92,2.92,0,0,0,.07-.72v-4.34a.21.21,0,0,1,.24-.24h1.18a.21.21,0,0,1,.24.24v4.5a4.73,4.73,0,0,1-.16,1.34,2,2,0,0,1-.53.89,2.11,2.11,0,0,1-.94.49,5.26,5.26,0,0,1-1.41.16h-3.13a5.26,5.26,0,0,1-1.41-.16,2.17,2.17,0,0,1-.94-.49,2,2,0,0,1-.53-.89,4.7,4.7,0,0,1-.17-1.34v-4.5A.22.22,0,0,1,143,122Z"/><path class="cls-1" d="M165.33,122a.22.22,0,0,1,.25.24v1.07a.22.22,0,0,1-.25.25h-3.42v5.82a.21.21,0,0,1-.24.24h-1.18a.21.21,0,0,1-.24-.24v-5.82h-3.42a.22.22,0,0,1-.25-.25v-1.07a.22.22,0,0,1,.25-.24Z"/><path class="cls-1" d="M171.61,122a.21.21,0,0,1,.24.24v7.14a.21.21,0,0,1-.24.24h-1.17c-.17,0-.25-.08-.25-.24v-7.14c0-.16.08-.24.25-.24Z"/><path class="cls-1" d="M183.26,122a5.7,5.7,0,0,1,1.41.16,2.23,2.23,0,0,1,.94.5,2,2,0,0,1,.53.89,4.58,4.58,0,0,1,.16,1.32v1.88a4.7,4.7,0,0,1-.16,1.33,2,2,0,0,1-.53.89,2.11,2.11,0,0,1-.94.49,5.26,5.26,0,0,1-1.41.16H179.9a5.26,5.26,0,0,1-1.41-.16,2.17,2.17,0,0,1-.94-.49,2,2,0,0,1-.53-.89,4.67,4.67,0,0,1-.17-1.33v-1.88a4.55,4.55,0,0,1,.17-1.32,2,2,0,0,1,.53-.89,2.29,2.29,0,0,1,.94-.5,5.7,5.7,0,0,1,1.41-.16Zm-4.74,4.63a2.88,2.88,0,0,0,.07.71.88.88,0,0,0,.23.45.83.83,0,0,0,.44.24,2.8,2.8,0,0,0,.7.07h3.23a2.75,2.75,0,0,0,.7-.07.79.79,0,0,0,.44-.24,1,1,0,0,0,.24-.45,3.47,3.47,0,0,0,.07-.71V125a3.47,3.47,0,0,0-.07-.71,1,1,0,0,0-.24-.45.79.79,0,0,0-.44-.24,2.75,2.75,0,0,0-.7-.07H180a2.8,2.8,0,0,0-.7.07.83.83,0,0,0-.44.24.88.88,0,0,0-.23.45,2.88,2.88,0,0,0-.07.71Z"/><path class="cls-1" d="M193.23,122a2.54,2.54,0,0,1,.43,0,.75.75,0,0,1,.31.09,1.1,1.1,0,0,1,.25.19,4,4,0,0,1,.27.34l4,5.3a.16.16,0,0,0,.15.08h.09c.06,0,.09,0,.09-.11v-5.68a.21.21,0,0,1,.24-.24h1.14a.21.21,0,0,1,.24.24v6.24a1.24,1.24,0,0,1-.24.9,1,1,0,0,1-.74.24h-.93a2.42,2.42,0,0,1-.42,0,1,1,0,0,1-.3-.08,1.43,1.43,0,0,1-.26-.19,3,3,0,0,1-.28-.35l-4.06-5.3a.19.19,0,0,0-.14-.08H193c-.06,0-.09,0-.09.11v5.68a.21.21,0,0,1-.24.24h-1.14a.22.22,0,0,1-.25-.24V123.1a1.23,1.23,0,0,1,.24-.89,1,1,0,0,1,.74-.24Z"/><path class="cls-1" d="M29.71,84v29c0,1.31.69,2,2.06,2h9.64a2,2,0,0,0,2-2V84Z"/><path class="cls-1" d="M120.59,57.16q-4.45-4.63-14.73-4.64H57.92a2.68,2.68,0,0,0-2.67,2.68v7.06a2.64,2.64,0,0,0,2.63,2.64H69.59a1.68,1.68,0,0,1,.47-.06h33q4.56,0,6.43,2t1.88,6v3.39q0,4-1.88,6t-6.43,2H68.9v0H55.25v29c0,1.31.68,2,2,2h9.64a2,2,0,0,0,2-2V95.9h37q10.27,0,14.73-4.64t4.47-13.75v-6.6q0-9.1-4.47-13.75"/><path class="cls-1" d="M195.94,52.52a2,2,0,0,1,2,2V63a2,2,0,0,1-2,2H151.21a4.4,4.4,0,0,0-3.66,1.34,5.72,5.72,0,0,0-1.07,3.66v3c0,3.34,1.55,5,4.64,5H184.6q7.77,0,11.69,4t3.93,11.38v7.15A14.61,14.61,0,0,1,196.38,111q-3.84,4-12,4H135c-1.37,0-2.05-.66-2.05-2v-8.48c0-1.31.68-2,2.05-2h46.87a4.43,4.43,0,0,0,3.66-1.34,5.66,5.66,0,0,0,1.07-3.66V93.94q0-5-4.64-5H148.44q-7.75,0-11.69-4t-3.93-11.38V67.07a14.6,14.6,0,0,1,3.84-10.53q3.84-4,12-4Z"/><path class="cls-2" d="M83.23,107.09a2,2,0,1,0-2-2,2,2,0,0,0,2,2"/><path class="cls-2" d="M115.42,104h-.09a.61.61,0,0,0-.33.12l-5.84,4a.26.26,0,0,0-.09.21v.09c0,.07,0,.11.12.11h6.36v-4.37c0-.11,0-.17-.13-.17"/><path class="cls-2" d="M122.27,94.33c-3.42,3.56-8.94,5.36-16.41,5.36H74V115h51.23V89.88a16.12,16.12,0,0,1-3,4.45M80.84,103a3.06,3.06,0,0,1,3.28-.94,3.13,3.13,0,0,1,2.3,2.52,3.75,3.75,0,0,1-.13,1.79,8.46,8.46,0,0,1-1,2.13,16.32,16.32,0,0,1-2,2.54s0,0-.05.06l-.39-.42a14.85,14.85,0,0,1-2.08-2.91,6.64,6.64,0,0,1-.69-1.83,3.19,3.19,0,0,1,.76-2.94m6.23,8.73a1.29,1.29,0,0,1-.41.36,3.75,3.75,0,0,1-1.25.49,9.23,9.23,0,0,1-2.67.23,7.63,7.63,0,0,1-2-.3,3.32,3.32,0,0,1-1-.47,2.06,2.06,0,0,1-.31-.28.61.61,0,0,1,0-.79,1.41,1.41,0,0,1,.43-.37,4.75,4.75,0,0,1,1.27-.48l.5-.1s.06,0,.08,0l.26.31-.55.11a2.54,2.54,0,0,0-.72.24l-.26.17a.24.24,0,0,0,0,.39,1.39,1.39,0,0,0,.31.18,3.69,3.69,0,0,0,1,.26,11.15,11.15,0,0,0,2.38.06,5.66,5.66,0,0,0,1.42-.27,1.5,1.5,0,0,0,.34-.16c.26-.16.27-.36,0-.54a1.86,1.86,0,0,0-.6-.25c-.25-.07-.5-.11-.75-.17h-.06c.07-.08.13-.14.18-.21s.17-.15.31-.12a5.75,5.75,0,0,1,1.37.43,2,2,0,0,1,.52.34,1.29,1.29,0,0,1,.16.18.6.6,0,0,1,0,.73M103.48,110a4.13,4.13,0,0,1-.14,1.1,1.94,1.94,0,0,1-.46.83,2.1,2.1,0,0,1-.83.52,3.92,3.92,0,0,1-1.27.18H92.62a.29.29,0,0,1-.33-.33V111a.29.29,0,0,1,.33-.33h7.48a1.34,1.34,0,0,0,.86-.23.88.88,0,0,0,.26-.72v-.56a.91.91,0,0,0-.28-.72,1.56,1.56,0,0,0-1-.25H92.71a.31.31,0,0,1-.35-.34v-1.08c0-.22.12-.33.35-.33H99.9a1.65,1.65,0,0,0,1-.24.85.85,0,0,0,.27-.68V105a.86.86,0,0,0-.27-.71,1.34,1.34,0,0,0-.87-.22H92.62c-.22,0-.33-.11-.33-.34v-1.35a.3.3,0,0,1,.33-.34h7.89a3.18,3.18,0,0,1,2.23.63,2.47,2.47,0,0,1,.66,1.89v.73a2.25,2.25,0,0,1-.9,1.93,2.17,2.17,0,0,1,1,2Zm15.9.12c0,.23-.11.34-.33.34H117.8v1.84c0,.22-.11.33-.34.33h-1.57c-.23,0-.35-.11-.35-.33V110.5h-8a1,1,0,0,1-.73-.26,1,1,0,0,1-.24-.67v-1.16a1.85,1.85,0,0,1,.12-.71,1.26,1.26,0,0,1,.47-.52l6.9-4.71a3.07,3.07,0,0,1,.69-.36,3.11,3.11,0,0,1,.84-.1h.89a1.4,1.4,0,0,1,1,.32,1.71,1.71,0,0,1,.33,1.24v5h1.25c.22,0,.33.11.33.35Z"/><path class="cls-2" d="M43.37,64.59V54.48a1.73,1.73,0,0,0-2-2H31.77c-1.37,0-2.06.65-2.06,2V64.59Z"/></svg>