<svg id="Layer_1" data-name="Layer 1" xmlns="http://www.w3.org/2000/svg" viewBox="0 0 221.63 184.64"><defs><style>.cls-1{fill:#2e3078;}.cls-2{fill:#fff;}.cls-3{fill:#e42727;}.cls-4{fill:#e52625;}</style></defs><path class="cls-1" d="M165.42,88.38A59.34,59.34,0,1,1,106.08,29a59.34,59.34,0,0,1,59.34,59.34"/><path class="cls-2" d="M106.08,149.07a60.69,60.69,0,1,1,60.7-60.69,60.76,60.76,0,0,1-60.7,60.69m0-118.68a58,58,0,1,0,58,58,58.05,58.05,0,0,0-58-58"/><path class="cls-3" d="M106.08,153.4a65,65,0,1,1,65-65,65.1,65.1,0,0,1-65,65m0-127.79a62.77,62.77,0,1,0,62.77,62.77,62.83,62.83,0,0,0-62.77-62.77"/><path class="cls-2" d="M62.84,105a.12.12,0,0,1,.13.14v.6a.12.12,0,0,1-.13.14H59.76a2.15,2.15,0,0,0-.4,0,.51.51,0,0,0-.25.14.54.54,0,0,0-.13.25,1.58,1.58,0,0,0,0,.41v.88a1.62,1.62,0,0,0,0,.41.64.64,0,0,0,.13.26.5.5,0,0,0,.25.13,1.54,1.54,0,0,0,.4,0h2a.28.28,0,0,0,.23-.08.42.42,0,0,0,.07-.29v-.5s0-.08-.07-.08h-1.8a.13.13,0,0,1-.14-.14v-.46a.13.13,0,0,1,.14-.14h2.56a.17.17,0,0,1,.19.18v1.43a1.06,1.06,0,0,1-.2.73.74.74,0,0,1-.57.21H59.72a3.56,3.56,0,0,1-.79-.08,1.22,1.22,0,0,1-.53-.28,1.08,1.08,0,0,1-.3-.51,2.31,2.31,0,0,1-.1-.75v-1a2.31,2.31,0,0,1,.1-.75,1,1,0,0,1,.3-.5,1.24,1.24,0,0,1,.53-.29,3,3,0,0,1,.79-.09Z"/><path class="cls-2" d="M69.28,105a1.36,1.36,0,0,1,1,.32,1.31,1.31,0,0,1,.31,1v.35a1.36,1.36,0,0,1-.22.83,1,1,0,0,1-.7.4l1,1.3s0,0,0,.09,0,.06-.09.06h-.8s-.09,0-.11,0a.17.17,0,0,1-.06-.06l-1-1.27h-2v1.22c0,.09,0,.13-.14.13h-.66c-.1,0-.14,0-.14-.13v-4c0-.13.06-.19.18-.19Zm-2.54,2.2h2.35a.59.59,0,0,0,.44-.14.56.56,0,0,0,.13-.41v-.26a.56.56,0,0,0-.13-.41.59.59,0,0,0-.44-.14H66.82c-.06,0-.08,0-.08.08Z"/><path class="cls-2" d="M77,105a3.09,3.09,0,0,1,.8.09,1.24,1.24,0,0,1,.53.29,1,1,0,0,1,.3.5,2.63,2.63,0,0,1,.09.74v1.06a2.65,2.65,0,0,1-.09.75,1.08,1.08,0,0,1-.3.51,1.22,1.22,0,0,1-.53.28,3.66,3.66,0,0,1-.8.08h-1.9a3.56,3.56,0,0,1-.79-.08,1.22,1.22,0,0,1-.53-.28,1.08,1.08,0,0,1-.3-.51,2.62,2.62,0,0,1-.1-.75v-1.06a2.6,2.6,0,0,1,.1-.74,1,1,0,0,1,.3-.5,1.24,1.24,0,0,1,.53-.29,3,3,0,0,1,.79-.09Zm-2.68,2.61a2.27,2.27,0,0,0,0,.41.51.51,0,0,0,.14.25.48.48,0,0,0,.24.14,1.54,1.54,0,0,0,.4,0H77a1.41,1.41,0,0,0,.39,0,.47.47,0,0,0,.25-.14.5.5,0,0,0,.13-.25,1.62,1.62,0,0,0,0-.41v-.92a1.54,1.54,0,0,0,0-.4.53.53,0,0,0-.13-.26.46.46,0,0,0-.25-.13,1.41,1.41,0,0,0-.39,0H75.12a1.54,1.54,0,0,0-.4,0,.47.47,0,0,0-.24.13.55.55,0,0,0-.14.26,2.15,2.15,0,0,0,0,.4Z"/><path class="cls-2" d="M82.31,105a.13.13,0,0,1,.14.14v2.45a1.62,1.62,0,0,0,0,.41.64.64,0,0,0,.13.26.5.5,0,0,0,.25.13,1.49,1.49,0,0,0,.4,0H85a1.41,1.41,0,0,0,.39,0,.46.46,0,0,0,.25-.13.53.53,0,0,0,.13-.26,1.62,1.62,0,0,0,0-.41v-2.45c0-.09,0-.14.13-.14h.67a.13.13,0,0,1,.14.14v2.54a2.65,2.65,0,0,1-.09.75,1.17,1.17,0,0,1-.3.51,1.26,1.26,0,0,1-.54.28,3.5,3.5,0,0,1-.79.08H83.23a3.5,3.5,0,0,1-.79-.08,1.17,1.17,0,0,1-.53-.28,1.08,1.08,0,0,1-.3-.51,2.31,2.31,0,0,1-.1-.75v-2.54a.13.13,0,0,1,.14-.14Z"/><path class="cls-2" d="M93.06,105a1.4,1.4,0,0,1,1,.32,1.35,1.35,0,0,1,.3,1v.45a1.34,1.34,0,0,1-.3,1,1.4,1.4,0,0,1-1,.32H90.52v1.18c0,.09,0,.13-.13.13h-.67c-.09,0-.14,0-.14-.13v-4a.17.17,0,0,1,.19-.19Zm-2.54,2.18h2.35a.62.62,0,0,0,.45-.14.61.61,0,0,0,.12-.41v-.23a.59.59,0,0,0-.12-.41.62.62,0,0,0-.45-.14H90.6s-.08,0-.08.07Z"/><path class="cls-2" d="M103.38,105c.09,0,.13,0,.13.14v.58c0,.09,0,.14-.13.14H100.3a.3.3,0,0,0-.25.09.37.37,0,0,0-.08.25v.21c0,.23.11.34.32.34h2.31a1.09,1.09,0,0,1,.8.28,1.06,1.06,0,0,1,.27.78v.49a1.05,1.05,0,0,1-.26.73,1.12,1.12,0,0,1-.83.27h-3.4c-.09,0-.14,0-.14-.13v-.59c0-.09,0-.13.14-.13h3.23a.3.3,0,0,0,.25-.09.4.4,0,0,0,.07-.26v-.25c0-.23-.1-.34-.32-.34h-2.3a1.1,1.1,0,0,1-.81-.27,1.14,1.14,0,0,1-.27-.79V106a1,1,0,0,1,.27-.72,1.1,1.1,0,0,1,.82-.28Z"/><path class="cls-2" d="M110,105a3,3,0,0,1,.79.09,1.27,1.27,0,0,1,.54.29,1.08,1.08,0,0,1,.3.5,2.63,2.63,0,0,1,.09.74v1.06a2.65,2.65,0,0,1-.09.75,1.17,1.17,0,0,1-.3.51,1.26,1.26,0,0,1-.54.28,3.5,3.5,0,0,1-.79.08h-1.9a3.5,3.5,0,0,1-.79-.08,1.17,1.17,0,0,1-.53-.28,1.08,1.08,0,0,1-.3-.51,2.31,2.31,0,0,1-.1-.75v-1.06a2.28,2.28,0,0,1,.1-.74,1,1,0,0,1,.3-.5,1.18,1.18,0,0,1,.53-.29,3,3,0,0,1,.79-.09Zm-2.68,2.61a1.62,1.62,0,0,0,0,.41.59.59,0,0,0,.13.25.51.51,0,0,0,.25.14,1.54,1.54,0,0,0,.4,0H110a1.54,1.54,0,0,0,.4,0,.51.51,0,0,0,.25-.14.59.59,0,0,0,.13-.25,1.62,1.62,0,0,0,0-.41v-.92a1.54,1.54,0,0,0,0-.4.64.64,0,0,0-.13-.26.5.5,0,0,0-.25-.13,1.54,1.54,0,0,0-.4,0h-1.82a1.54,1.54,0,0,0-.4,0,.5.5,0,0,0-.25.13.64.64,0,0,0-.13.26,1.54,1.54,0,0,0,0,.4Z"/><path class="cls-2" d="M115.33,105a.13.13,0,0,1,.14.14v2.45a1.62,1.62,0,0,0,0,.41.53.53,0,0,0,.13.26.46.46,0,0,0,.25.13,1.41,1.41,0,0,0,.39,0h2.49a.13.13,0,0,1,.14.14v.6c0,.09,0,.13-.14.13h-2.52a3.59,3.59,0,0,1-.8-.08,1.09,1.09,0,0,1-.83-.79,2.65,2.65,0,0,1-.09-.75v-2.54a.12.12,0,0,1,.14-.14Z"/><path class="cls-2" d="M122.31,105c.09,0,.13,0,.13.14v2.45a2.27,2.27,0,0,0,0,.41.65.65,0,0,0,.14.26.46.46,0,0,0,.25.13,1.41,1.41,0,0,0,.39,0H125a1.54,1.54,0,0,0,.4,0,.5.5,0,0,0,.25-.13.64.64,0,0,0,.13-.26,2.37,2.37,0,0,0,0-.41v-2.45a.13.13,0,0,1,.14-.14h.67c.09,0,.13,0,.13.14v2.54a2.65,2.65,0,0,1-.09.75,1.08,1.08,0,0,1-.3.51,1.17,1.17,0,0,1-.53.28,3.59,3.59,0,0,1-.8.08h-1.77a3.56,3.56,0,0,1-.79-.08,1.28,1.28,0,0,1-.53-.28,1.08,1.08,0,0,1-.3-.51,2.62,2.62,0,0,1-.1-.75v-2.54c0-.09,0-.14.15-.14Z"/><path class="cls-2" d="M134.25,105a.13.13,0,0,1,.14.14v.6a.13.13,0,0,1-.14.14h-1.93v3.29c0,.09,0,.13-.13.13h-.67c-.09,0-.14,0-.14-.13v-3.29h-1.93a.13.13,0,0,1-.14-.14v-.6a.13.13,0,0,1,.14-.14Z"/><path class="cls-2" d="M137.8,105a.13.13,0,0,1,.14.14v4c0,.09-.05.13-.14.13h-.66c-.1,0-.14,0-.14-.13v-4a.12.12,0,0,1,.14-.14Z"/><path class="cls-2" d="M144.38,105a3.09,3.09,0,0,1,.8.09,1.3,1.3,0,0,1,.53.29,1,1,0,0,1,.3.5,2.63,2.63,0,0,1,.09.74v1.06a2.65,2.65,0,0,1-.09.75,1.08,1.08,0,0,1-.3.51,1.28,1.28,0,0,1-.53.28,3.66,3.66,0,0,1-.8.08h-1.9a3.56,3.56,0,0,1-.79-.08,1.22,1.22,0,0,1-.53-.28,1.08,1.08,0,0,1-.3-.51,2.31,2.31,0,0,1-.1-.75v-1.06a2.28,2.28,0,0,1,.1-.74,1,1,0,0,1,.3-.5,1.24,1.24,0,0,1,.53-.29,3,3,0,0,1,.79-.09Zm-2.68,2.61a1.62,1.62,0,0,0,0,.41.59.59,0,0,0,.13.25.51.51,0,0,0,.25.14,1.54,1.54,0,0,0,.4,0h1.82a1.54,1.54,0,0,0,.4,0,.51.51,0,0,0,.25-.14.59.59,0,0,0,.13-.25,1.62,1.62,0,0,0,0-.41v-.92a1.54,1.54,0,0,0,0-.4A.64.64,0,0,0,145,106a.5.5,0,0,0-.25-.13,1.54,1.54,0,0,0-.4,0h-1.82a1.54,1.54,0,0,0-.4,0,.5.5,0,0,0-.25.13.64.64,0,0,0-.13.26,1.54,1.54,0,0,0,0,.4Z"/><path class="cls-2" d="M150,105l.25,0a.34.34,0,0,1,.17,0,.36.36,0,0,1,.14.11.79.79,0,0,1,.15.19l2.29,3a.09.09,0,0,0,.08,0h0s.05,0,.05-.07v-3.2a.13.13,0,0,1,.14-.14H154a.12.12,0,0,1,.13.14v3.52a.78.78,0,0,1-.13.51.59.59,0,0,1-.42.13h-.77a.48.48,0,0,1-.17,0,.45.45,0,0,1-.14-.11,1.12,1.12,0,0,1-.16-.19L150,106a.12.12,0,0,0-.09,0h-.05s0,0,0,.06v3.21c0,.09,0,.13-.13.13h-.65c-.09,0-.14,0-.14-.13v-3.53a.68.68,0,0,1,.13-.5.57.57,0,0,1,.42-.14Z"/><path class="cls-2" d="M57.64,83.56V100c0,.74.39,1.11,1.16,1.11h5.45A1.11,1.11,0,0,0,65.36,100V83.56Z"/><path class="cls-2" d="M109,68.4q-2.52-2.62-8.32-2.62H73.58a1.5,1.5,0,0,0-1.51,1.51v4a1.48,1.48,0,0,0,1.49,1.49h6.61a1.12,1.12,0,0,1,.27,0H99.1a4.9,4.9,0,0,1,3.63,1.11,4.75,4.75,0,0,1,1.06,3.38v1.91a4.77,4.77,0,0,1-1.06,3.38,4.9,4.9,0,0,1-3.63,1.11H79.78v0H72.07V100c0,.74.38,1.11,1.16,1.11h5.44A1.11,1.11,0,0,0,79.78,100V90.29h20.88q5.81,0,8.32-2.63t2.52-7.76V76.17q0-5.15-2.52-7.77"/><path class="cls-2" d="M151.54,65.78a1.1,1.1,0,0,1,1.11,1.11v4.79a1.11,1.11,0,0,1-1.11,1.11H126.28a2.51,2.51,0,0,0-2.07.75,3.27,3.27,0,0,0-.6,2.07v1.72c0,1.88.87,2.82,2.62,2.82h18.91q4.38,0,6.6,2.24A8.76,8.76,0,0,1,154,88.82v4a8.24,8.24,0,0,1-2.17,6q-2.16,2.26-6.75,2.27H117.1c-.77,0-1.16-.37-1.16-1.11V95.18c0-.74.39-1.11,1.16-1.11h26.47a2.48,2.48,0,0,0,2.07-.76,3.23,3.23,0,0,0,.61-2.07V89.18c0-1.89-.88-2.83-2.63-2.83H124.71c-2.92,0-5.12-.74-6.6-2.24a8.76,8.76,0,0,1-2.22-6.43V74a8.22,8.22,0,0,1,2.17-6c1.44-1.52,3.7-2.27,6.75-2.27Z"/><path class="cls-4" d="M87.87,96.6a1.12,1.12,0,1,0-1.12-1.13,1.13,1.13,0,0,0,1.12,1.13"/><path class="cls-4" d="M106.06,94.88h0a.32.32,0,0,0-.19.07l-3.3,2.26a.17.17,0,0,0,0,.12v.06a.07.07,0,0,0,.07.06h3.59V95c0-.07,0-.1-.07-.1"/><path class="cls-4" d="M109.93,89.4c-1.93,2-5.05,3-9.27,3h-18v8.66h28.95V86.88a9.3,9.3,0,0,1-1.7,2.52M86.52,94.28a1.83,1.83,0,0,1,3.15.89,1.93,1.93,0,0,1-.07,1,4.7,4.7,0,0,1-.56,1.2,9.31,9.31,0,0,1-1.13,1.44l0,0-.22-.25A8.33,8.33,0,0,1,86.48,97a4,4,0,0,1-.39-1,1.83,1.83,0,0,1,.43-1.66M90,99.21a.93.93,0,0,1-.23.21,2.37,2.37,0,0,1-.7.27,5.48,5.48,0,0,1-1.51.13,4.15,4.15,0,0,1-1.11-.17,1.76,1.76,0,0,1-.59-.27.52.52,0,0,1-.17-.16.32.32,0,0,1,0-.44,1,1,0,0,1,.24-.21,2.73,2.73,0,0,1,.72-.27l.28,0a0,0,0,0,1,.05,0l.15.18-.31.06a1.53,1.53,0,0,0-.41.14.71.71,0,0,0-.14.1.12.12,0,0,0,0,.21.54.54,0,0,0,.18.11,1.89,1.89,0,0,0,.58.14,6.1,6.1,0,0,0,1.35,0,3.64,3.64,0,0,0,.8-.15L89.4,99c.15-.1.15-.21,0-.31a1.11,1.11,0,0,0-.34-.14l-.43-.1h0a.9.9,0,0,0,.1-.12.14.14,0,0,1,.18-.07,3.29,3.29,0,0,1,.77.24,1.57,1.57,0,0,1,.3.2l.09.1a.33.33,0,0,1,0,.41m9.27-.94a2.35,2.35,0,0,1-.07.62,1.27,1.27,0,0,1-.26.47,1.16,1.16,0,0,1-.48.3,2.38,2.38,0,0,1-.71.1H93.18a.17.17,0,0,1-.19-.19V98.8c0-.12.06-.18.19-.18H97.4a.78.78,0,0,0,.49-.13.51.51,0,0,0,.15-.41v-.32a.53.53,0,0,0-.16-.41.94.94,0,0,0-.59-.14H93.23c-.13,0-.2-.06-.2-.19v-.61a.18.18,0,0,1,.2-.19h4.06a1,1,0,0,0,.59-.13.49.49,0,0,0,.15-.38v-.3a.48.48,0,0,0-.15-.4.72.72,0,0,0-.49-.13H93.18a.17.17,0,0,1-.19-.19v-.76a.17.17,0,0,1,.19-.19h4.46a1.79,1.79,0,0,1,1.26.35,1.41,1.41,0,0,1,.37,1.07v.41a1.27,1.27,0,0,1-.51,1.09,1.23,1.23,0,0,1,.55,1.11Zm9,.07a.17.17,0,0,1-.19.19h-.71v1a.17.17,0,0,1-.19.19h-.88c-.14,0-.2-.06-.2-.19v-1H101.6a.53.53,0,0,1-.41-.15.51.51,0,0,1-.14-.37v-.66a1.15,1.15,0,0,1,.07-.4.83.83,0,0,1,.27-.3l3.9-2.65a1.51,1.51,0,0,1,.39-.21,1.92,1.92,0,0,1,.47-.05h.5a.84.84,0,0,1,.57.17,1,1,0,0,1,.18.71v2.83h.71a.17.17,0,0,1,.19.19Z"/><path class="cls-4" d="M65.36,72.6V66.89a1,1,0,0,0-1.11-1.11H58.8c-.77,0-1.16.37-1.16,1.11V72.6Z"/></svg>